<svg width="132" height="24" viewBox="0 0 132 24" fill="none" xmlns="http://www.w3.org/2000/svg">
<path d="M1.29706 19V6.04H3.10506V11.8H3.77706L6.09706 6.04H7.90506L5.34506 12.2L8.22506 19H6.41706L3.79306 12.68H3.10506V19H1.29706ZM8.71806 19L11.4701 6.04H13.2141L15.9821 19H14.2701L13.6781 15.736H11.0381L10.4141 19H8.71806ZM11.2781 14.44H13.4381L12.3501 8.6L11.2781 14.44ZM18.2992 19V7.384H16.1072V6.04H22.2352V7.384H20.1072V19H18.2992ZM22.7806 19L25.5326 6.04H27.2766L30.0446 19H28.3326L27.7406 15.736H25.1006L24.4766 19H22.7806ZM25.3406 14.44H27.5006L26.4126 8.6L25.3406 14.44ZM30.3836 19V17.656C30.6182 17.6667 30.8316 17.6507 31.0236 17.608C31.2262 17.5653 31.4022 17.464 31.5516 17.304C31.7116 17.144 31.8502 16.8933 31.9676 16.552C32.0849 16.2107 32.1862 15.7467 32.2716 15.16C32.3569 14.5733 32.4316 13.832 32.4956 12.936L32.9276 6.04H38.6236V19H36.8156V7.384H34.4796L34.1756 12.936C34.1222 13.768 34.0529 14.52 33.9676 15.192C33.8822 15.8533 33.7542 16.4347 33.5836 16.936C33.4236 17.4267 33.2049 17.8373 32.9276 18.168C32.6609 18.488 32.3196 18.7173 31.9036 18.856C31.4876 18.9947 30.9809 19.0427 30.3836 19ZM43.9684 19.144C43.0938 19.144 42.3951 18.9733 41.8724 18.632C41.3498 18.2907 40.9764 17.8053 40.7524 17.176C40.5284 16.536 40.4164 15.7893 40.4164 14.936V10.024C40.4164 9.17067 40.5284 8.44 40.7524 7.832C40.9871 7.21333 41.3604 6.744 41.8724 6.424C42.3951 6.09333 43.0938 5.928 43.9684 5.928C44.8431 5.928 45.5364 6.09333 46.0484 6.424C46.5604 6.75467 46.9284 7.224 47.1524 7.832C47.3871 8.44 47.5044 9.17067 47.5044 10.024V14.952C47.5044 15.7947 47.3871 16.5307 47.1524 17.16C46.9284 17.7893 46.5604 18.28 46.0484 18.632C45.5364 18.9733 44.8431 19.144 43.9684 19.144ZM43.9684 17.72C44.4484 17.72 44.8111 17.624 45.0564 17.432C45.3018 17.2293 45.4671 16.952 45.5524 16.6C45.6378 16.2373 45.6804 15.816 45.6804 15.336V9.656C45.6804 9.176 45.6378 8.76533 45.5524 8.424C45.4671 8.072 45.3018 7.80533 45.0564 7.624C44.8111 7.432 44.4484 7.336 43.9684 7.336C43.4884 7.336 43.1204 7.432 42.8644 7.624C42.6191 7.80533 42.4538 8.072 42.3684 8.424C42.2831 8.76533 42.2404 9.176 42.2404 9.656V15.336C42.2404 15.816 42.2831 16.2373 42.3684 16.6C42.4538 16.952 42.6191 17.2293 42.8644 17.432C43.1204 17.624 43.4884 17.72 43.9684 17.72ZM49.2814 19V6.04H54.2094V7.384H51.0894V19H49.2814ZM59.1096 19V6.04H62.3256C63.1042 6.04 63.7229 6.184 64.1816 6.472C64.6509 6.74933 64.9922 7.15467 65.2056 7.688C65.4189 8.22133 65.5256 8.86667 65.5256 9.624C65.5256 10.3067 65.4029 10.8987 65.1576 11.4C64.9229 11.9013 64.5709 12.2907 64.1016 12.568C63.6322 12.8347 63.0456 12.968 62.3416 12.968H60.9176V19H59.1096ZM60.9176 11.672H61.7496C62.2722 11.672 62.6829 11.6133 62.9816 11.496C63.2802 11.3787 63.4936 11.176 63.6216 10.888C63.7496 10.5893 63.8136 10.1733 63.8136 9.64C63.8136 9.02133 63.7656 8.54667 63.6696 8.216C63.5842 7.88533 63.3976 7.656 63.1096 7.528C62.8216 7.4 62.3736 7.336 61.7656 7.336H60.9176V11.672ZM66.7971 19V6.04H69.4051C70.2691 6.04 70.9837 6.15733 71.5491 6.392C72.1144 6.616 72.5304 6.984 72.7971 7.496C73.0744 7.99733 73.2131 8.65867 73.2131 9.48C73.2131 9.98133 73.1597 10.44 73.0531 10.856C72.9464 11.2613 72.7757 11.608 72.5411 11.896C72.3064 12.1733 71.9971 12.376 71.6131 12.504L73.4531 19H71.7091L70.0131 12.92H68.6051V19H66.7971ZM68.6051 11.624H69.2931C69.8051 11.624 70.2211 11.56 70.5411 11.432C70.8611 11.304 71.0957 11.0853 71.2451 10.776C71.3944 10.4667 71.4691 10.0347 71.4691 9.48C71.4691 8.72267 71.3304 8.17867 71.0531 7.848C70.7757 7.50667 70.2264 7.336 69.4051 7.336H68.6051V11.624ZM78.4059 19.144C77.5313 19.144 76.8326 18.9733 76.3099 18.632C75.7873 18.2907 75.4139 17.8053 75.1899 17.176C74.9659 16.536 74.8539 15.7893 74.8539 14.936V10.024C74.8539 9.17067 74.9659 8.44 75.1899 7.832C75.4246 7.21333 75.7979 6.744 76.3099 6.424C76.8326 6.09333 77.5313 5.928 78.4059 5.928C79.2806 5.928 79.9739 6.09333 80.4859 6.424C80.9979 6.75467 81.3659 7.224 81.5899 7.832C81.8246 8.44 81.9419 9.17067 81.9419 10.024V14.952C81.9419 15.7947 81.8246 16.5307 81.5899 17.16C81.3659 17.7893 80.9979 18.28 80.4859 18.632C79.9739 18.9733 79.2806 19.144 78.4059 19.144ZM78.4059 17.72C78.8859 17.72 79.2486 17.624 79.4939 17.432C79.7393 17.2293 79.9046 16.952 79.9899 16.6C80.0753 16.2373 80.1179 15.816 80.1179 15.336V9.656C80.1179 9.176 80.0753 8.76533 79.9899 8.424C79.9046 8.072 79.7393 7.80533 79.4939 7.624C79.2486 7.432 78.8859 7.336 78.4059 7.336C77.9259 7.336 77.5579 7.432 77.3019 7.624C77.0566 7.80533 76.8913 8.072 76.8059 8.424C76.7206 8.76533 76.6779 9.176 76.6779 9.656V15.336C76.6779 15.816 76.7206 16.2373 76.8059 16.6C76.8913 16.952 77.0566 17.2293 77.3019 17.432C77.5579 17.624 77.9259 17.72 78.4059 17.72Z" fill="black"/>
<line x1="100" y1="12" x2="118" y2="12" stroke="black" stroke-width="2"/>
<path d="M124 12L117.25 17.1962V6.80385L124 12Z" fill="black"/>
</svg>
